<svg xmlns="http://www.w3.org/2000/svg" xmlns:xlink="http://www.w3.org/1999/xlink" width="500" zoomAndPan="magnify" viewBox="0 0 375 374.999991" height="500" preserveAspectRatio="xMidYMid meet" version="1.2"><defs><clipPath id="67076352bb"><path d="M 77.503906 26.625 L 297.253906 26.625 L 297.253906 330 L 77.503906 330 Z M 77.503906 26.625 "/></clipPath></defs><g id="af3f353637"><rect x="0" width="375" y="0" height="374.999991" style="fill:#ffffff;fill-opacity:0;stroke:none;"/><rect x="0" width="375" y="0" height="374.999991" style="fill:#ffffff;fill-opacity:0;stroke:none;"/><g clip-rule="nonzero" clip-path="url(#67076352bb)"><path style=" stroke:none;fill-rule:nonzero;fill:#1b1b1b;fill-opacity:1;" d="M 187.378906 61.464844 C 213.546875 61.464844 234.738281 82.679688 234.738281 108.847656 L 234.738281 156.300781 L 140.015625 156.300781 L 140.015625 108.847656 C 140.015625 82.679688 161.207031 61.464844 187.378906 61.464844 Z M 269.167969 156.636719 L 269.167969 108.496094 C 269.167969 63.324219 232.550781 26.703125 187.378906 26.703125 C 142.207031 26.703125 105.582031 63.324219 105.582031 108.496094 L 105.582031 156.636719 C 89.730469 158.808594 77.503906 172.371094 77.503906 188.820312 L 77.503906 297.113281 C 77.503906 315.074219 92.066406 329.636719 110.027344 329.636719 L 264.730469 329.636719 C 282.691406 329.636719 297.25 315.074219 297.25 297.113281 L 297.25 188.820312 C 297.25 172.371094 285.023438 158.808594 269.167969 156.636719 "/></g></g></svg>